<?xml version="1.0" encoding="UTF-8"?>
<svg xmlns="http://www.w3.org/2000/svg" xmlns:xlink="http://www.w3.org/1999/xlink" width="504pt" height="252pt" viewBox="0 0 504 252" version="1.1">
<defs>
<clipPath id="clip1">
  <path d="M 45.464844 159 L 494.035156 159 L 494.035156 162 L 45.464844 162 Z M 45.464844 159 "/>
</clipPath>
<clipPath id="clip2">
  <path d="M 45.464844 108 L 494.035156 108 L 494.035156 111 L 45.464844 111 Z M 45.464844 108 "/>
</clipPath>
<clipPath id="clip3">
  <path d="M 45.464844 57 L 494.035156 57 L 494.035156 60 L 45.464844 60 Z M 45.464844 57 "/>
</clipPath>
<clipPath id="clip4">
  <path d="M 293 11.957031 L 295 11.957031 L 295 183.808594 L 293 183.808594 Z M 293 11.957031 "/>
</clipPath>
</defs>
<g id="surface31">
<rect x="0" y="0" width="504" height="252" style="fill:rgb(100%,100%,100%);fill-opacity:1;stroke:none;"/>
<rect x="0" y="0" width="504" height="252" style="fill:rgb(83.529412%,89.411765%,92.156863%);fill-opacity:1;stroke:none;"/>
<g clip-path="url(#clip1)" clip-rule="nonzero">
<path style="fill:none;stroke-width:1.867212;stroke-linecap:butt;stroke-linejoin:round;stroke:rgb(100%,100%,100%);stroke-opacity:1;stroke-miterlimit:10;" d="M 45.464844 160.3125 L 494.039062 160.3125 "/>
</g>
<g clip-path="url(#clip2)" clip-rule="nonzero">
<path style="fill:none;stroke-width:1.867212;stroke-linecap:butt;stroke-linejoin:round;stroke:rgb(100%,100%,100%);stroke-opacity:1;stroke-miterlimit:10;" d="M 45.464844 109.476562 L 494.039062 109.476562 "/>
</g>
<g clip-path="url(#clip3)" clip-rule="nonzero">
<path style="fill:none;stroke-width:1.867212;stroke-linecap:butt;stroke-linejoin:round;stroke:rgb(100%,100%,100%);stroke-opacity:1;stroke-miterlimit:10;" d="M 45.464844 58.644531 L 494.039062 58.644531 "/>
</g>
<path style="fill-rule:nonzero;fill:rgb(0%,0%,0%);fill-opacity:1;stroke-width:0.708661;stroke-linecap:round;stroke-linejoin:round;stroke:rgb(0%,0%,0%);stroke-opacity:1;stroke-miterlimit:10;" d="M 260.800781 42.625 C 260.800781 45.765625 258.25 48.3125 255.109375 48.3125 C 251.96875 48.3125 249.421875 45.765625 249.421875 42.625 C 249.421875 39.484375 251.96875 36.9375 255.109375 36.9375 C 258.25 36.9375 260.800781 39.484375 260.800781 42.625 "/>
<path style="fill-rule:nonzero;fill:rgb(0%,0%,0%);fill-opacity:1;stroke-width:0.708661;stroke-linecap:round;stroke-linejoin:round;stroke:rgb(0%,0%,0%);stroke-opacity:1;stroke-miterlimit:10;" d="M 405.730469 28.65625 C 405.730469 31.796875 403.183594 34.34375 400.042969 34.34375 C 396.898438 34.34375 394.351562 31.796875 394.351562 28.65625 C 394.351562 25.511719 396.898438 22.964844 400.042969 22.964844 C 403.183594 22.964844 405.730469 25.511719 405.730469 28.65625 "/>
<path style="fill-rule:nonzero;fill:rgb(0%,0%,0%);fill-opacity:1;stroke-width:0.708661;stroke-linecap:round;stroke-linejoin:round;stroke:rgb(0%,0%,0%);stroke-opacity:1;stroke-miterlimit:10;" d="M 71.542969 157.382812 C 71.542969 160.527344 68.996094 163.074219 65.855469 163.074219 C 62.714844 163.074219 60.167969 160.527344 60.167969 157.382812 C 60.167969 154.242188 62.714844 151.695312 65.855469 151.695312 C 68.996094 151.695312 71.542969 154.242188 71.542969 157.382812 "/>
<path style="fill-rule:nonzero;fill:rgb(0%,0%,0%);fill-opacity:1;stroke-width:0.708661;stroke-linecap:round;stroke-linejoin:round;stroke:rgb(0%,0%,0%);stroke-opacity:1;stroke-miterlimit:10;" d="M 282.066406 175.996094 C 282.066406 179.136719 279.519531 181.683594 276.378906 181.683594 C 273.234375 181.683594 270.6875 179.136719 270.6875 175.996094 C 270.6875 172.851562 273.234375 170.304688 276.378906 170.304688 C 279.519531 170.304688 282.066406 172.851562 282.066406 175.996094 "/>
<path style="fill-rule:nonzero;fill:rgb(0%,0%,0%);fill-opacity:1;stroke-width:0.708661;stroke-linecap:round;stroke-linejoin:round;stroke:rgb(0%,0%,0%);stroke-opacity:1;stroke-miterlimit:10;" d="M 479.335938 19.765625 C 479.335938 22.910156 476.789062 25.457031 473.648438 25.457031 C 470.503906 25.457031 467.957031 22.910156 467.957031 19.765625 C 467.957031 16.625 470.503906 14.078125 473.648438 14.078125 C 476.789062 14.078125 479.335938 16.625 479.335938 19.765625 "/>
<g clip-path="url(#clip4)" clip-rule="nonzero">
<path style="fill:none;stroke-width:1.066978;stroke-linecap:butt;stroke-linejoin:round;stroke:rgb(0%,0%,100%);stroke-opacity:1;stroke-miterlimit:10;" d="M 294.207031 183.808594 L 294.207031 11.957031 "/>
</g>
<path style="fill:none;stroke-width:1.066978;stroke-linecap:butt;stroke-linejoin:round;stroke:rgb(0%,0%,100%);stroke-opacity:1;stroke-dasharray:1.066978,3.200935;stroke-miterlimit:10;" d="M 255.109375 42.625 L 294.207031 42.625 "/>
<path style="fill:none;stroke-width:1.066978;stroke-linecap:butt;stroke-linejoin:round;stroke:rgb(0%,0%,100%);stroke-opacity:1;stroke-dasharray:1.066978,3.200935;stroke-miterlimit:10;" d="M 400.042969 28.65625 L 294.207031 28.65625 "/>
<path style="fill:none;stroke-width:1.066978;stroke-linecap:butt;stroke-linejoin:round;stroke:rgb(0%,0%,100%);stroke-opacity:1;stroke-dasharray:1.066978,3.200935;stroke-miterlimit:10;" d="M 65.855469 157.382812 L 294.207031 157.382812 "/>
<path style="fill:none;stroke-width:1.066978;stroke-linecap:butt;stroke-linejoin:round;stroke:rgb(0%,0%,100%);stroke-opacity:1;stroke-dasharray:1.066978,3.200935;stroke-miterlimit:10;" d="M 276.378906 175.996094 L 294.207031 175.996094 "/>
<path style="fill:none;stroke-width:1.066978;stroke-linecap:butt;stroke-linejoin:round;stroke:rgb(0%,0%,100%);stroke-opacity:1;stroke-dasharray:1.066978,3.200935;stroke-miterlimit:10;" d="M 473.648438 19.765625 L 294.207031 19.765625 "/>
<path style=" stroke:none;fill-rule:nonzero;fill:rgb(0%,0%,0%);fill-opacity:1;" d="M 35.347656 167.191406 L 35.347656 165.949219 L 35.449219 165.722656 L 35.554688 165.503906 L 35.667969 165.289062 L 35.78125 165.078125 L 35.902344 164.875 L 36.023438 164.675781 L 36.152344 164.484375 L 36.28125 164.296875 L 36.417969 164.113281 L 36.558594 163.9375 L 36.703125 163.765625 L 36.851562 163.59375 L 37 163.425781 L 37.148438 163.261719 L 37.300781 163.105469 L 37.453125 162.945312 L 37.605469 162.792969 L 37.757812 162.644531 L 37.914062 162.5 L 38.074219 162.355469 L 38.230469 162.214844 L 38.390625 162.074219 L 38.546875 161.9375 L 39.015625 161.539062 L 39.171875 161.410156 L 39.328125 161.285156 L 39.480469 161.160156 L 39.636719 161.039062 L 39.941406 160.796875 L 40.089844 160.675781 L 40.378906 160.433594 L 40.652344 160.191406 L 40.785156 160.070312 L 41.042969 159.828125 L 41.164062 159.707031 L 41.28125 159.582031 L 41.394531 159.457031 L 41.503906 159.332031 L 41.605469 159.207031 L 41.703125 159.078125 L 41.796875 158.949219 L 41.886719 158.820312 L 41.96875 158.691406 L 42.046875 158.558594 L 42.121094 158.421875 L 42.1875 158.285156 L 42.246094 158.144531 L 42.296875 158 L 42.339844 157.851562 L 42.375 157.699219 L 42.402344 157.542969 L 42.421875 157.382812 L 42.433594 157.21875 L 42.4375 157.054688 L 42.4375 156.9375 L 42.429688 156.824219 L 42.421875 156.714844 L 42.410156 156.609375 L 42.394531 156.503906 L 42.375 156.402344 L 42.351562 156.304688 L 42.296875 156.117188 L 42.261719 156.027344 L 42.226562 155.941406 L 42.1875 155.855469 L 42.144531 155.773438 L 42.097656 155.691406 L 41.996094 155.542969 L 41.941406 155.472656 L 41.882812 155.402344 L 41.820312 155.339844 L 41.753906 155.277344 L 41.6875 155.21875 L 41.617188 155.160156 L 41.46875 155.058594 L 41.390625 155.011719 L 41.308594 154.96875 L 41.136719 154.890625 L 41.046875 154.859375 L 40.859375 154.796875 L 40.765625 154.769531 L 40.667969 154.746094 L 40.570312 154.726562 L 40.46875 154.710938 L 40.363281 154.695312 L 40.257812 154.683594 L 40.152344 154.675781 L 40.039062 154.671875 L 39.824219 154.671875 L 39.71875 154.675781 L 39.617188 154.683594 L 39.515625 154.695312 L 39.417969 154.707031 L 39.316406 154.722656 L 39.21875 154.742188 L 39.121094 154.765625 L 39.027344 154.789062 L 38.933594 154.816406 L 38.84375 154.847656 L 38.753906 154.882812 L 38.667969 154.917969 L 38.582031 154.957031 L 38.5 155 L 38.417969 155.046875 L 38.339844 155.09375 L 38.261719 155.144531 L 38.1875 155.199219 L 38.113281 155.257812 L 38.042969 155.316406 L 37.972656 155.378906 L 37.90625 155.445312 L 37.78125 155.585938 L 37.722656 155.660156 L 37.667969 155.738281 L 37.566406 155.902344 L 37.515625 155.988281 L 37.472656 156.078125 L 37.433594 156.167969 L 37.394531 156.261719 L 37.363281 156.355469 L 37.332031 156.457031 L 37.304688 156.558594 L 37.277344 156.664062 L 37.257812 156.769531 L 37.238281 156.882812 L 37.222656 156.996094 L 35.425781 156.828125 L 35.445312 156.683594 L 35.472656 156.535156 L 35.5 156.390625 L 35.535156 156.25 L 35.574219 156.109375 L 35.617188 155.96875 L 35.664062 155.832031 L 35.773438 155.566406 L 35.835938 155.433594 L 35.902344 155.304688 L 35.976562 155.175781 L 36.050781 155.054688 L 36.132812 154.9375 L 36.21875 154.820312 L 36.3125 154.707031 L 36.40625 154.597656 L 36.507812 154.492188 L 36.613281 154.390625 L 36.726562 154.289062 L 36.839844 154.191406 L 36.960938 154.097656 L 37.085938 154.011719 L 37.214844 153.925781 L 37.347656 153.847656 L 37.484375 153.769531 L 37.628906 153.699219 L 37.777344 153.628906 L 37.925781 153.566406 L 38.082031 153.507812 L 38.246094 153.457031 L 38.414062 153.40625 L 38.585938 153.363281 L 38.761719 153.328125 L 38.945312 153.296875 L 39.132812 153.269531 L 39.324219 153.25 L 39.519531 153.238281 L 39.722656 153.230469 L 39.929688 153.226562 L 40.132812 153.226562 L 40.328125 153.234375 L 40.523438 153.246094 L 40.714844 153.265625 L 40.898438 153.285156 L 41.078125 153.3125 L 41.253906 153.34375 L 41.425781 153.382812 L 41.59375 153.421875 L 41.753906 153.46875 L 41.914062 153.519531 L 42.066406 153.578125 L 42.210938 153.636719 L 42.355469 153.703125 L 42.492188 153.773438 L 42.625 153.847656 L 42.75 153.925781 L 42.875 154.011719 L 42.992188 154.097656 L 43.101562 154.191406 L 43.210938 154.289062 L 43.316406 154.394531 L 43.414062 154.5 L 43.503906 154.609375 L 43.59375 154.726562 L 43.675781 154.847656 L 43.753906 154.972656 L 43.824219 155.101562 L 43.890625 155.234375 L 43.953125 155.375 L 44.007812 155.515625 L 44.058594 155.664062 L 44.101562 155.816406 L 44.140625 155.972656 L 44.171875 156.132812 L 44.199219 156.296875 L 44.21875 156.464844 L 44.234375 156.636719 L 44.242188 156.8125 L 44.246094 156.996094 L 44.242188 157.132812 L 44.234375 157.269531 L 44.222656 157.40625 L 44.183594 157.671875 L 44.152344 157.800781 L 44.121094 157.933594 L 44.082031 158.0625 L 44.039062 158.1875 L 43.992188 158.3125 L 43.941406 158.4375 L 43.886719 158.5625 L 43.769531 158.804688 L 43.703125 158.925781 L 43.636719 159.042969 L 43.488281 159.277344 L 43.410156 159.390625 L 43.328125 159.503906 L 43.15625 159.730469 L 43.070312 159.839844 L 42.976562 159.953125 L 42.882812 160.0625 L 42.785156 160.171875 L 42.6875 160.277344 L 42.582031 160.386719 L 42.371094 160.597656 L 42.261719 160.703125 L 42.148438 160.808594 L 42.039062 160.914062 L 41.925781 161.015625 L 41.8125 161.121094 L 41.695312 161.222656 L 41.582031 161.328125 L 41.347656 161.53125 L 41.226562 161.632812 L 41.109375 161.734375 L 40.988281 161.832031 L 40.871094 161.933594 L 40.75 162.03125 L 40.628906 162.132812 L 40.507812 162.230469 L 40.390625 162.332031 L 40.269531 162.429688 L 40.148438 162.53125 L 39.785156 162.824219 L 39.667969 162.925781 L 39.554688 163.023438 L 39.4375 163.121094 L 39.324219 163.21875 L 39.210938 163.320312 L 38.992188 163.515625 L 38.882812 163.617188 L 38.78125 163.714844 L 38.675781 163.816406 L 38.382812 164.121094 L 38.289062 164.222656 L 38.109375 164.425781 L 38.023438 164.527344 L 37.9375 164.632812 L 37.855469 164.734375 L 37.777344 164.835938 L 37.628906 165.046875 L 37.5625 165.152344 L 37.5 165.257812 L 37.382812 165.476562 L 37.28125 165.695312 L 44.460938 165.695312 L 44.460938 167.191406 Z M 35.347656 167.191406 "/>
<path style=" stroke:none;fill-rule:nonzero;fill:rgb(0%,0%,0%);fill-opacity:1;" d="M 42.945312 113.242188 L 42.945312 116.359375 L 41.285156 116.359375 L 41.285156 113.242188 L 34.800781 113.242188 L 34.800781 111.875 L 41.101562 102.597656 L 42.945312 102.597656 L 42.945312 111.855469 L 44.878906 111.855469 L 44.878906 113.242188 Z M 41.285156 104.582031 L 41.28125 104.589844 L 41.277344 104.605469 L 41.269531 104.617188 L 41.261719 104.636719 L 41.242188 104.675781 L 41.230469 104.695312 L 41.21875 104.722656 L 41.203125 104.746094 L 41.1875 104.777344 L 41.140625 104.859375 L 41.121094 104.890625 L 41.105469 104.921875 L 41.085938 104.953125 L 41.070312 104.984375 L 40.914062 105.265625 L 40.890625 105.300781 L 40.871094 105.339844 L 40.851562 105.375 L 40.828125 105.414062 L 40.789062 105.484375 L 40.769531 105.515625 L 40.75 105.550781 L 40.734375 105.582031 L 40.714844 105.609375 L 40.699219 105.640625 L 40.679688 105.667969 L 40.664062 105.691406 L 40.648438 105.71875 L 40.632812 105.742188 L 37.105469 110.9375 L 37.097656 110.953125 L 37.085938 110.972656 L 37.074219 110.988281 L 37.058594 111.007812 L 37.046875 111.027344 L 37.03125 111.050781 L 37.015625 111.070312 L 36.996094 111.09375 L 36.980469 111.117188 L 36.960938 111.144531 L 36.941406 111.167969 L 36.925781 111.195312 L 36.90625 111.21875 L 36.886719 111.246094 L 36.871094 111.273438 L 36.851562 111.296875 L 36.753906 111.433594 L 36.734375 111.457031 L 36.714844 111.484375 L 36.695312 111.507812 L 36.675781 111.535156 L 36.65625 111.558594 L 36.636719 111.585938 L 36.617188 111.609375 L 36.597656 111.636719 L 36.558594 111.683594 L 36.542969 111.707031 L 36.523438 111.730469 L 36.507812 111.753906 L 36.476562 111.792969 L 36.460938 111.808594 L 36.449219 111.824219 L 36.433594 111.839844 L 36.421875 111.855469 L 41.285156 111.855469 Z M 41.285156 104.582031 "/>
<path style=" stroke:none;fill-rule:nonzero;fill:rgb(0%,0%,0%);fill-opacity:1;" d="M 44.585938 61.023438 L 44.585938 61.226562 L 44.574219 61.429688 L 44.5625 61.628906 L 44.539062 61.824219 L 44.515625 62.015625 L 44.480469 62.207031 L 44.445312 62.390625 L 44.398438 62.574219 L 44.351562 62.75 L 44.292969 62.925781 L 44.234375 63.097656 L 44.167969 63.261719 L 44.097656 63.421875 L 44.023438 63.578125 L 43.941406 63.726562 L 43.851562 63.875 L 43.757812 64.015625 L 43.660156 64.152344 L 43.554688 64.285156 L 43.445312 64.410156 L 43.332031 64.53125 L 43.210938 64.648438 L 43.085938 64.757812 L 42.957031 64.863281 L 42.820312 64.960938 L 42.679688 65.054688 L 42.53125 65.144531 L 42.378906 65.226562 L 42.222656 65.304688 L 42.058594 65.378906 L 41.890625 65.445312 L 41.714844 65.5 L 41.535156 65.554688 L 41.351562 65.597656 L 41.164062 65.636719 L 40.96875 65.664062 L 40.769531 65.691406 L 40.566406 65.707031 L 40.359375 65.71875 L 40.144531 65.71875 L 39.90625 65.714844 L 39.675781 65.703125 L 39.449219 65.679688 L 39.230469 65.648438 L 39.019531 65.605469 L 38.8125 65.554688 L 38.609375 65.496094 L 38.414062 65.425781 L 38.226562 65.347656 L 38.042969 65.261719 L 37.867188 65.164062 L 37.695312 65.0625 L 37.53125 64.949219 L 37.375 64.828125 L 37.222656 64.703125 L 37.074219 64.566406 L 36.933594 64.421875 L 36.800781 64.269531 L 36.671875 64.109375 L 36.550781 63.941406 L 36.433594 63.765625 L 36.324219 63.578125 L 36.21875 63.386719 L 36.121094 63.1875 L 36.027344 62.980469 L 35.941406 62.761719 L 35.859375 62.539062 L 35.785156 62.308594 L 35.714844 62.070312 L 35.652344 61.824219 L 35.597656 61.570312 L 35.546875 61.304688 L 35.503906 61.039062 L 35.464844 60.761719 L 35.433594 60.480469 L 35.40625 60.1875 L 35.386719 59.894531 L 35.371094 59.589844 L 35.363281 59.28125 L 35.359375 58.960938 L 35.363281 58.601562 L 35.371094 58.246094 L 35.386719 57.902344 L 35.410156 57.566406 L 35.441406 57.238281 L 35.476562 56.921875 L 35.519531 56.613281 L 35.570312 56.3125 L 35.628906 56.023438 L 35.691406 55.738281 L 35.761719 55.46875 L 35.839844 55.203125 L 35.921875 54.949219 L 36.011719 54.703125 L 36.105469 54.46875 L 36.207031 54.242188 L 36.3125 54.023438 L 36.425781 53.816406 L 36.542969 53.617188 L 36.667969 53.425781 L 36.796875 53.246094 L 36.933594 53.074219 L 37.074219 52.910156 L 37.21875 52.757812 L 37.371094 52.613281 L 37.527344 52.476562 L 37.691406 52.351562 L 37.859375 52.234375 L 38.03125 52.128906 L 38.210938 52.027344 L 38.394531 51.941406 L 38.585938 51.859375 L 38.78125 51.789062 L 38.980469 51.730469 L 39.1875 51.675781 L 39.394531 51.636719 L 39.609375 51.601562 L 39.828125 51.578125 L 40.050781 51.566406 L 40.28125 51.558594 L 40.421875 51.5625 L 40.558594 51.566406 L 40.695312 51.574219 L 40.828125 51.582031 L 41.09375 51.613281 L 41.222656 51.632812 L 41.347656 51.652344 L 41.476562 51.679688 L 41.597656 51.707031 L 41.71875 51.738281 L 41.839844 51.773438 L 41.957031 51.8125 L 42.070312 51.851562 L 42.183594 51.898438 L 42.292969 51.949219 L 42.402344 52.003906 L 42.507812 52.058594 L 42.710938 52.183594 L 42.8125 52.25 L 42.910156 52.324219 L 43.003906 52.398438 L 43.097656 52.476562 L 43.277344 52.648438 L 43.359375 52.742188 L 43.523438 52.9375 L 43.601562 53.042969 L 43.675781 53.15625 L 43.746094 53.269531 L 43.816406 53.390625 L 43.878906 53.511719 L 43.941406 53.644531 L 44 53.777344 L 44.058594 53.917969 L 44.109375 54.058594 L 44.160156 54.210938 L 44.207031 54.363281 L 42.527344 54.664062 L 42.46875 54.492188 L 42.402344 54.328125 L 42.332031 54.175781 L 42.253906 54.035156 L 42.171875 53.902344 L 42.078125 53.777344 L 41.980469 53.664062 L 41.875 53.5625 L 41.765625 53.46875 L 41.648438 53.386719 L 41.527344 53.308594 L 41.402344 53.242188 L 41.273438 53.183594 L 41.140625 53.128906 L 41.003906 53.085938 L 40.863281 53.050781 L 40.71875 53.023438 L 40.570312 53 L 40.417969 52.988281 L 40.261719 52.984375 L 40.117188 52.988281 L 39.976562 53 L 39.839844 53.015625 L 39.703125 53.039062 L 39.574219 53.070312 L 39.441406 53.109375 L 39.316406 53.152344 L 39.191406 53.203125 L 39.070312 53.261719 L 38.953125 53.328125 L 38.835938 53.398438 L 38.726562 53.476562 L 38.617188 53.5625 L 38.511719 53.65625 L 38.410156 53.753906 L 38.3125 53.859375 L 38.21875 53.972656 L 38.128906 54.09375 L 38.039062 54.21875 L 37.957031 54.351562 L 37.875 54.492188 L 37.800781 54.636719 L 37.726562 54.789062 L 37.65625 54.949219 L 37.59375 55.113281 L 37.53125 55.289062 L 37.472656 55.46875 L 37.417969 55.65625 L 37.367188 55.851562 L 37.320312 56.050781 L 37.28125 56.261719 L 37.242188 56.476562 L 37.210938 56.699219 L 37.183594 56.925781 L 37.160156 57.164062 L 37.140625 57.40625 L 37.125 57.65625 L 37.113281 57.910156 L 37.109375 58.175781 L 37.105469 58.445312 L 37.207031 58.269531 L 37.3125 58.105469 L 37.429688 57.949219 L 37.550781 57.800781 L 37.683594 57.664062 L 37.820312 57.53125 L 37.96875 57.410156 L 38.121094 57.296875 L 38.285156 57.191406 L 38.453125 57.097656 L 38.628906 57.007812 L 38.8125 56.929688 L 39 56.859375 L 39.191406 56.796875 L 39.386719 56.746094 L 39.589844 56.703125 L 39.796875 56.671875 L 40.007812 56.648438 L 40.222656 56.632812 L 40.445312 56.628906 L 40.632812 56.632812 L 40.8125 56.640625 L 40.992188 56.65625 L 41.167969 56.675781 L 41.339844 56.703125 L 41.507812 56.738281 L 41.671875 56.777344 L 41.832031 56.820312 L 41.992188 56.875 L 42.144531 56.929688 L 42.296875 56.996094 L 42.441406 57.0625 L 42.582031 57.136719 L 42.71875 57.21875 L 42.851562 57.300781 L 42.980469 57.394531 L 43.101562 57.488281 L 43.21875 57.589844 L 43.335938 57.699219 L 43.445312 57.808594 L 43.550781 57.925781 L 43.652344 58.046875 L 43.75 58.171875 L 43.839844 58.304688 L 43.929688 58.441406 L 44.007812 58.582031 L 44.085938 58.726562 L 44.15625 58.878906 L 44.222656 59.035156 L 44.285156 59.195312 L 44.339844 59.359375 L 44.394531 59.527344 L 44.4375 59.703125 L 44.476562 59.878906 L 44.511719 60.058594 L 44.539062 60.242188 L 44.558594 60.433594 L 44.574219 60.625 L 44.582031 60.820312 Z M 42.800781 61.101562 L 42.792969 60.820312 L 42.785156 60.6875 L 42.773438 60.550781 L 42.757812 60.421875 L 42.738281 60.292969 L 42.714844 60.171875 L 42.6875 60.046875 L 42.625 59.8125 L 42.585938 59.699219 L 42.546875 59.589844 L 42.503906 59.480469 L 42.457031 59.378906 L 42.40625 59.28125 L 42.351562 59.183594 L 42.292969 59.089844 L 42.230469 59.003906 L 42.164062 58.917969 L 42.097656 58.835938 L 42.023438 58.753906 L 41.949219 58.679688 L 41.871094 58.605469 L 41.789062 58.539062 L 41.703125 58.472656 L 41.523438 58.355469 L 41.429688 58.304688 L 41.328125 58.253906 L 41.226562 58.210938 L 41.121094 58.167969 L 41.015625 58.128906 L 40.902344 58.097656 L 40.785156 58.066406 L 40.667969 58.042969 L 40.546875 58.023438 L 40.421875 58.007812 L 40.292969 57.996094 L 40.160156 57.988281 L 40.027344 57.984375 L 39.929688 57.988281 L 39.835938 57.992188 L 39.640625 58.007812 L 39.546875 58.023438 L 39.449219 58.039062 L 39.253906 58.078125 L 38.960938 58.160156 L 38.773438 58.230469 L 38.683594 58.269531 L 38.503906 58.363281 L 38.417969 58.414062 L 38.335938 58.46875 L 38.25 58.527344 L 38.171875 58.589844 L 38.09375 58.65625 L 38.019531 58.722656 L 37.949219 58.796875 L 37.878906 58.875 L 37.816406 58.957031 L 37.75 59.039062 L 37.691406 59.128906 L 37.632812 59.222656 L 37.578125 59.320312 L 37.527344 59.421875 L 37.480469 59.527344 L 37.4375 59.636719 L 37.402344 59.753906 L 37.371094 59.871094 L 37.34375 59.996094 L 37.320312 60.125 L 37.304688 60.257812 L 37.292969 60.394531 L 37.285156 60.535156 L 37.28125 60.679688 L 37.285156 60.832031 L 37.289062 60.980469 L 37.300781 61.128906 L 37.3125 61.273438 L 37.332031 61.417969 L 37.351562 61.558594 L 37.378906 61.699219 L 37.40625 61.835938 L 37.441406 61.972656 L 37.476562 62.105469 L 37.5625 62.363281 L 37.609375 62.484375 L 37.660156 62.605469 L 37.714844 62.71875 L 37.773438 62.832031 L 37.832031 62.941406 L 37.894531 63.046875 L 38.035156 63.25 L 38.109375 63.34375 L 38.1875 63.4375 L 38.269531 63.523438 L 38.441406 63.6875 L 38.53125 63.761719 L 38.625 63.832031 L 38.722656 63.898438 L 38.820312 63.960938 L 38.921875 64.019531 L 39.027344 64.074219 L 39.136719 64.121094 L 39.246094 64.164062 L 39.355469 64.203125 L 39.472656 64.234375 L 39.589844 64.257812 L 39.710938 64.277344 L 39.832031 64.292969 L 39.957031 64.300781 L 40.085938 64.304688 L 40.210938 64.300781 L 40.332031 64.296875 L 40.453125 64.285156 L 40.570312 64.269531 L 40.6875 64.25 L 40.796875 64.226562 L 40.90625 64.199219 L 41.011719 64.167969 L 41.117188 64.128906 L 41.21875 64.089844 L 41.316406 64.042969 L 41.414062 63.992188 L 41.507812 63.9375 L 41.6875 63.820312 L 41.769531 63.753906 L 41.851562 63.683594 L 41.929688 63.609375 L 42.003906 63.535156 L 42.078125 63.453125 L 42.210938 63.28125 L 42.273438 63.1875 L 42.332031 63.089844 L 42.386719 62.992188 L 42.488281 62.78125 L 42.535156 62.671875 L 42.613281 62.4375 L 42.648438 62.320312 L 42.679688 62.195312 L 42.707031 62.070312 L 42.734375 61.9375 L 42.753906 61.808594 L 42.769531 61.671875 L 42.78125 61.535156 L 42.792969 61.390625 L 42.796875 61.25 Z M 42.800781 61.101562 "/>
<path style="fill:none;stroke-width:0.853583;stroke-linecap:butt;stroke-linejoin:round;stroke:rgb(0%,0%,0%);stroke-opacity:1;stroke-miterlimit:10;" d="M 45.464844 183.808594 L 494.039062 183.808594 "/>
<path style="fill:none;stroke-width:1.066978;stroke-linecap:butt;stroke-linejoin:round;stroke:rgb(0%,0%,0%);stroke-opacity:1;stroke-miterlimit:10;" d="M 164.261719 173.84375 L 164.261719 183.808594 "/>
<path style="fill:none;stroke-width:1.066978;stroke-linecap:butt;stroke-linejoin:round;stroke:rgb(0%,0%,0%);stroke-opacity:1;stroke-miterlimit:10;" d="M 294.882812 173.84375 L 294.882812 183.808594 "/>
<path style="fill:none;stroke-width:1.066978;stroke-linecap:butt;stroke-linejoin:round;stroke:rgb(0%,0%,0%);stroke-opacity:1;stroke-miterlimit:10;" d="M 425.507812 173.84375 L 425.507812 183.808594 "/>
<path style=" stroke:none;fill-rule:nonzero;fill:rgb(0%,0%,0%);fill-opacity:1;" d="M 168.945312 209.789062 L 168.941406 209.976562 L 168.929688 210.160156 L 168.914062 210.339844 L 168.894531 210.515625 L 168.867188 210.6875 L 168.832031 210.851562 L 168.789062 211.015625 L 168.742188 211.175781 L 168.691406 211.328125 L 168.632812 211.480469 L 168.5 211.769531 L 168.421875 211.90625 L 168.34375 212.039062 L 168.253906 212.167969 L 168.164062 212.289062 L 168.0625 212.410156 L 167.960938 212.523438 L 167.847656 212.632812 L 167.734375 212.738281 L 167.613281 212.839844 L 167.488281 212.933594 L 167.355469 213.023438 L 167.21875 213.109375 L 167.074219 213.1875 L 166.925781 213.265625 L 166.769531 213.335938 L 166.609375 213.402344 L 166.441406 213.464844 L 166.269531 213.519531 L 166.089844 213.570312 L 165.910156 213.617188 L 165.722656 213.65625 L 165.53125 213.691406 L 165.335938 213.71875 L 165.132812 213.742188 L 164.925781 213.761719 L 164.714844 213.773438 L 164.496094 213.78125 L 164.277344 213.785156 L 164.023438 213.78125 L 163.78125 213.773438 L 163.542969 213.757812 L 163.316406 213.734375 L 163.097656 213.707031 L 162.882812 213.671875 L 162.679688 213.632812 L 162.484375 213.585938 L 162.296875 213.53125 L 162.117188 213.472656 L 161.945312 213.40625 L 161.78125 213.335938 L 161.621094 213.261719 L 161.46875 213.183594 L 161.324219 213.101562 L 161.183594 213.015625 L 161.046875 212.925781 L 160.921875 212.832031 L 160.796875 212.734375 L 160.683594 212.632812 L 160.570312 212.527344 L 160.464844 212.414062 L 160.367188 212.304688 L 160.273438 212.1875 L 160.1875 212.070312 L 160.105469 211.949219 L 160.027344 211.828125 L 159.957031 211.699219 L 159.890625 211.574219 L 159.832031 211.441406 L 159.777344 211.304688 L 159.726562 211.167969 L 159.679688 211.03125 L 159.636719 210.894531 L 159.597656 210.757812 L 159.5625 210.617188 L 159.53125 210.476562 L 159.503906 210.335938 L 159.480469 210.195312 L 159.460938 210.054688 L 161.277344 209.886719 L 161.292969 209.996094 L 161.3125 210.101562 L 161.335938 210.207031 L 161.359375 210.308594 L 161.386719 210.410156 L 161.449219 210.605469 L 161.519531 210.792969 L 161.605469 210.972656 L 161.652344 211.058594 L 161.703125 211.140625 L 161.757812 211.222656 L 161.8125 211.300781 L 161.871094 211.378906 L 161.933594 211.449219 L 162 211.523438 L 162.066406 211.589844 L 162.136719 211.65625 L 162.210938 211.71875 L 162.367188 211.835938 L 162.453125 211.890625 L 162.539062 211.941406 L 162.628906 211.988281 L 162.722656 212.035156 L 162.820312 212.078125 L 162.921875 212.117188 L 163.132812 212.1875 L 163.246094 212.21875 L 163.359375 212.242188 L 163.480469 212.265625 L 163.601562 212.285156 L 163.730469 212.300781 L 163.859375 212.3125 L 163.996094 212.324219 L 164.132812 212.328125 L 164.277344 212.328125 L 164.535156 212.324219 L 164.785156 212.304688 L 165.019531 212.269531 L 165.246094 212.226562 L 165.460938 212.167969 L 165.660156 212.09375 L 165.851562 212.007812 L 166.03125 211.910156 L 166.199219 211.800781 L 166.355469 211.675781 L 166.5 211.539062 L 166.628906 211.386719 L 166.742188 211.226562 L 166.84375 211.050781 L 166.925781 210.863281 L 166.996094 210.660156 L 167.046875 210.449219 L 167.085938 210.222656 L 167.109375 209.984375 L 167.117188 209.730469 L 167.113281 209.582031 L 167.105469 209.4375 L 167.085938 209.300781 L 167.0625 209.171875 L 167.03125 209.046875 L 166.996094 208.925781 L 166.949219 208.8125 L 166.898438 208.707031 L 166.839844 208.605469 L 166.777344 208.511719 L 166.707031 208.417969 L 166.636719 208.332031 L 166.558594 208.25 L 166.480469 208.171875 L 166.398438 208.097656 L 166.3125 208.027344 L 166.222656 207.960938 L 166.132812 207.898438 L 166.035156 207.839844 L 165.9375 207.789062 L 165.835938 207.738281 L 165.734375 207.691406 L 165.628906 207.644531 L 165.523438 207.605469 L 165.304688 207.535156 L 165.191406 207.503906 L 165.078125 207.480469 L 164.960938 207.457031 L 164.84375 207.4375 L 164.609375 207.40625 L 164.5 207.390625 L 164.386719 207.378906 L 164.277344 207.371094 L 164.066406 207.355469 L 163.960938 207.351562 L 163.859375 207.351562 L 163.757812 207.347656 L 162.761719 207.347656 L 162.761719 205.824219 L 163.820312 205.824219 L 163.917969 205.820312 L 164.019531 205.816406 L 164.125 205.808594 L 164.226562 205.800781 L 164.332031 205.789062 L 164.433594 205.777344 L 164.539062 205.761719 L 164.648438 205.746094 L 164.753906 205.726562 L 164.964844 205.679688 L 165.167969 205.617188 L 165.265625 205.582031 L 165.363281 205.542969 L 165.550781 205.457031 L 165.730469 205.355469 L 165.820312 205.300781 L 165.984375 205.175781 L 166.0625 205.109375 L 166.136719 205.039062 L 166.210938 204.960938 L 166.277344 204.882812 L 166.34375 204.800781 L 166.40625 204.714844 L 166.464844 204.625 L 166.519531 204.53125 L 166.570312 204.429688 L 166.613281 204.328125 L 166.652344 204.214844 L 166.683594 204.101562 L 166.710938 203.980469 L 166.730469 203.859375 L 166.746094 203.726562 L 166.753906 203.59375 L 166.757812 203.453125 L 166.75 203.238281 L 166.730469 203.03125 L 166.695312 202.832031 L 166.652344 202.644531 L 166.59375 202.464844 L 166.519531 202.296875 L 166.433594 202.136719 L 166.335938 201.988281 L 166.226562 201.847656 L 166.101562 201.714844 L 165.964844 201.59375 L 165.820312 201.480469 L 165.65625 201.386719 L 165.484375 201.300781 L 165.296875 201.230469 L 165.101562 201.171875 L 164.886719 201.128906 L 164.664062 201.09375 L 164.425781 201.078125 L 164.179688 201.070312 L 163.949219 201.074219 L 163.730469 201.09375 L 163.519531 201.125 L 163.320312 201.164062 L 163.125 201.21875 L 162.941406 201.285156 L 162.765625 201.363281 L 162.601562 201.449219 L 162.441406 201.550781 L 162.292969 201.664062 L 162.15625 201.789062 L 162.03125 201.921875 L 161.917969 202.066406 L 161.816406 202.21875 L 161.730469 202.382812 L 161.652344 202.554688 L 161.585938 202.738281 L 161.535156 202.929688 L 161.492188 203.132812 L 161.464844 203.34375 L 159.695312 203.207031 L 159.71875 203.027344 L 159.75 202.855469 L 159.785156 202.683594 L 159.828125 202.519531 L 159.875 202.359375 L 159.925781 202.203125 L 159.984375 202.050781 L 160.046875 201.90625 L 160.117188 201.761719 L 160.195312 201.625 L 160.273438 201.492188 L 160.445312 201.242188 L 160.539062 201.125 L 160.636719 201.011719 L 160.734375 200.902344 L 160.839844 200.796875 L 160.949219 200.699219 L 161.0625 200.601562 L 161.179688 200.511719 L 161.300781 200.425781 L 161.429688 200.34375 L 161.558594 200.265625 L 161.691406 200.191406 L 161.828125 200.121094 L 161.964844 200.058594 L 162.109375 200 L 162.253906 199.945312 L 162.402344 199.894531 L 162.558594 199.847656 L 162.710938 199.804688 L 162.871094 199.769531 L 163.027344 199.734375 L 163.191406 199.707031 L 163.351562 199.679688 L 163.519531 199.660156 L 163.683594 199.644531 L 163.855469 199.632812 L 164.023438 199.625 L 164.199219 199.625 L 164.425781 199.628906 L 164.644531 199.636719 L 164.859375 199.652344 L 165.066406 199.671875 L 165.269531 199.699219 L 165.464844 199.730469 L 165.652344 199.769531 L 165.835938 199.8125 L 166.011719 199.863281 L 166.179688 199.917969 L 166.34375 199.976562 L 166.5 200.039062 L 166.652344 200.105469 L 166.796875 200.179688 L 166.933594 200.253906 L 167.066406 200.335938 L 167.195312 200.417969 L 167.3125 200.507812 L 167.429688 200.601562 L 167.539062 200.699219 L 167.640625 200.796875 L 167.738281 200.902344 L 167.828125 201.007812 L 167.914062 201.117188 L 167.992188 201.230469 L 168.066406 201.347656 L 168.136719 201.46875 L 168.199219 201.59375 L 168.257812 201.71875 L 168.308594 201.851562 L 168.355469 201.984375 L 168.398438 202.121094 L 168.4375 202.257812 L 168.472656 202.394531 L 168.5 202.539062 L 168.523438 202.679688 L 168.539062 202.824219 L 168.550781 202.96875 L 168.558594 203.117188 L 168.5625 203.265625 L 168.5625 203.386719 L 168.554688 203.507812 L 168.546875 203.625 L 168.535156 203.738281 L 168.503906 203.964844 L 168.480469 204.078125 L 168.457031 204.1875 L 168.429688 204.292969 L 168.398438 204.398438 L 168.363281 204.503906 L 168.324219 204.605469 L 168.28125 204.707031 L 168.234375 204.804688 L 168.183594 204.902344 L 168.128906 204.992188 L 168.074219 205.085938 L 168.011719 205.175781 L 167.949219 205.261719 L 167.878906 205.347656 L 167.808594 205.429688 L 167.730469 205.511719 L 167.652344 205.589844 L 167.480469 205.738281 L 167.292969 205.878906 L 167.191406 205.945312 L 167.089844 206.007812 L 166.980469 206.070312 L 166.871094 206.128906 L 166.757812 206.183594 L 166.636719 206.238281 L 166.515625 206.289062 L 166.386719 206.335938 L 166.253906 206.378906 L 166.117188 206.421875 L 165.976562 206.460938 L 165.832031 206.496094 L 165.683594 206.527344 L 165.683594 206.566406 L 165.84375 206.585938 L 166.003906 206.609375 L 166.160156 206.640625 L 166.3125 206.671875 L 166.457031 206.707031 L 166.601562 206.746094 L 166.738281 206.792969 L 166.871094 206.839844 L 167 206.890625 L 167.128906 206.949219 L 167.363281 207.066406 L 167.476562 207.132812 L 167.585938 207.199219 L 167.789062 207.339844 L 167.882812 207.417969 L 167.972656 207.496094 L 168.144531 207.660156 L 168.292969 207.839844 L 168.363281 207.929688 L 168.429688 208.023438 L 168.492188 208.121094 L 168.550781 208.21875 L 168.601562 208.320312 L 168.652344 208.425781 L 168.738281 208.636719 L 168.777344 208.75 L 168.8125 208.859375 L 168.84375 208.972656 L 168.871094 209.085938 L 168.890625 209.199219 L 168.910156 209.316406 L 168.925781 209.433594 L 168.933594 209.550781 L 168.941406 209.671875 Z M 168.945312 209.789062 "/>
<path style=" stroke:none;fill-rule:nonzero;fill:rgb(0%,0%,0%);fill-opacity:1;" d="M 297.925781 210.472656 L 297.925781 213.589844 L 296.265625 213.589844 L 296.265625 210.472656 L 289.78125 210.472656 L 289.78125 209.105469 L 296.082031 199.828125 L 297.925781 199.828125 L 297.925781 209.085938 L 299.859375 209.085938 L 299.859375 210.472656 Z M 296.265625 201.8125 L 296.257812 201.835938 L 296.242188 201.867188 L 296.230469 201.886719 L 296.222656 201.90625 L 296.199219 201.953125 L 296.136719 202.0625 L 296.121094 202.09375 L 296.101562 202.121094 L 296.085938 202.152344 L 296.066406 202.183594 L 296.050781 202.21875 L 296.03125 202.25 L 295.914062 202.460938 L 295.894531 202.5 L 295.871094 202.535156 L 295.832031 202.605469 L 295.808594 202.644531 L 295.75 202.75 L 295.710938 202.8125 L 295.695312 202.84375 L 295.675781 202.871094 L 295.644531 202.925781 L 295.613281 202.972656 L 292.085938 208.167969 L 292.078125 208.1875 L 292.066406 208.203125 L 292.054688 208.222656 L 292.039062 208.238281 L 292.027344 208.261719 L 292.011719 208.28125 L 291.996094 208.304688 L 291.976562 208.324219 L 291.960938 208.351562 L 291.921875 208.398438 L 291.90625 208.425781 L 291.886719 208.453125 L 291.867188 208.476562 L 291.851562 208.503906 L 291.8125 208.558594 L 291.792969 208.582031 L 291.734375 208.664062 L 291.714844 208.6875 L 291.695312 208.714844 L 291.675781 208.738281 L 291.65625 208.765625 L 291.636719 208.789062 L 291.617188 208.816406 L 291.597656 208.839844 L 291.578125 208.867188 L 291.558594 208.890625 L 291.539062 208.917969 L 291.523438 208.941406 L 291.503906 208.964844 L 291.441406 209.042969 L 291.429688 209.058594 L 291.402344 209.085938 L 296.265625 209.085938 Z M 296.265625 201.8125 "/>
<path style=" stroke:none;fill-rule:nonzero;fill:rgb(0%,0%,0%);fill-opacity:1;" d="M 430.230469 209.105469 L 430.226562 209.3125 L 430.21875 209.515625 L 430.203125 209.710938 L 430.179688 209.90625 L 430.152344 210.097656 L 430.117188 210.285156 L 430.078125 210.46875 L 430.03125 210.652344 L 429.976562 210.828125 L 429.917969 211 L 429.851562 211.171875 L 429.78125 211.335938 L 429.703125 211.496094 L 429.617188 211.652344 L 429.53125 211.800781 L 429.433594 211.949219 L 429.332031 212.089844 L 429.222656 212.226562 L 429.109375 212.359375 L 428.988281 212.484375 L 428.863281 212.605469 L 428.730469 212.722656 L 428.59375 212.832031 L 428.449219 212.933594 L 428.300781 213.03125 L 428.140625 213.125 L 427.980469 213.214844 L 427.8125 213.296875 L 427.636719 213.371094 L 427.457031 213.441406 L 427.273438 213.507812 L 427.082031 213.566406 L 426.886719 213.617188 L 426.683594 213.660156 L 426.476562 213.699219 L 426.261719 213.730469 L 426.042969 213.753906 L 425.816406 213.769531 L 425.585938 213.78125 L 425.347656 213.785156 L 425.132812 213.78125 L 424.925781 213.773438 L 424.722656 213.761719 L 424.523438 213.742188 L 424.332031 213.722656 L 424.144531 213.691406 L 423.964844 213.660156 L 423.789062 213.621094 L 423.617188 213.578125 L 423.453125 213.53125 L 423.140625 213.421875 L 422.996094 213.363281 L 422.851562 213.296875 L 422.714844 213.230469 L 422.578125 213.160156 L 422.453125 213.085938 L 422.328125 213.003906 L 422.210938 212.921875 L 422.09375 212.835938 L 421.984375 212.746094 L 421.882812 212.652344 L 421.78125 212.554688 L 421.59375 212.351562 L 421.507812 212.246094 L 421.425781 212.136719 L 421.347656 212.023438 L 421.273438 211.910156 L 421.207031 211.792969 L 421.144531 211.671875 L 421.085938 211.550781 L 420.976562 211.300781 L 420.929688 211.175781 L 420.886719 211.046875 L 420.808594 210.78125 L 420.777344 210.648438 L 420.746094 210.511719 L 422.523438 210.308594 L 422.570312 210.464844 L 422.597656 210.539062 L 422.625 210.617188 L 422.65625 210.695312 L 422.683594 210.769531 L 422.71875 210.84375 L 422.753906 210.921875 L 422.789062 210.996094 L 422.828125 211.070312 L 422.867188 211.140625 L 422.910156 211.210938 L 422.957031 211.28125 L 423.003906 211.347656 L 423.058594 211.414062 L 423.109375 211.480469 L 423.226562 211.605469 L 423.289062 211.664062 L 423.355469 211.722656 L 423.425781 211.78125 L 423.496094 211.832031 L 423.652344 211.933594 L 423.734375 211.980469 L 423.816406 212.023438 L 423.996094 212.109375 L 424.089844 212.148438 L 424.183594 212.183594 L 424.285156 212.214844 L 424.390625 212.242188 L 424.503906 212.269531 L 424.617188 212.289062 L 424.734375 212.308594 L 424.855469 212.324219 L 424.984375 212.335938 L 425.113281 212.34375 L 425.246094 212.347656 L 425.523438 212.347656 L 425.65625 212.339844 L 425.785156 212.332031 L 425.914062 212.316406 L 426.039062 212.296875 L 426.28125 212.25 L 426.398438 212.21875 L 426.515625 212.183594 L 426.625 212.144531 L 426.84375 212.050781 L 427.046875 211.941406 L 427.234375 211.816406 L 427.324219 211.746094 L 427.410156 211.675781 L 427.574219 211.519531 L 427.652344 211.433594 L 427.726562 211.347656 L 427.796875 211.257812 L 427.929688 211.0625 L 427.988281 210.960938 L 428.042969 210.855469 L 428.144531 210.628906 L 428.1875 210.511719 L 428.230469 210.390625 L 428.265625 210.269531 L 428.296875 210.140625 L 428.328125 210.007812 L 428.351562 209.875 L 428.371094 209.734375 L 428.382812 209.59375 L 428.394531 209.449219 L 428.402344 209.296875 L 428.402344 209.019531 L 428.394531 208.894531 L 428.386719 208.773438 L 428.371094 208.65625 L 428.351562 208.539062 L 428.328125 208.421875 L 428.304688 208.308594 L 428.273438 208.199219 L 428.238281 208.089844 L 428.199219 207.984375 L 428.15625 207.878906 L 428.109375 207.773438 L 428.007812 207.578125 L 427.949219 207.484375 L 427.890625 207.394531 L 427.757812 207.222656 L 427.6875 207.144531 L 427.613281 207.066406 L 427.535156 206.988281 L 427.453125 206.917969 L 427.367188 206.847656 L 427.28125 206.78125 L 427.1875 206.71875 L 427.09375 206.660156 L 426.992188 206.605469 L 426.890625 206.554688 L 426.785156 206.503906 L 426.675781 206.460938 L 426.5625 206.417969 L 426.449219 206.382812 L 426.332031 206.351562 L 426.210938 206.324219 L 426.089844 206.300781 L 425.960938 206.28125 L 425.832031 206.265625 L 425.699219 206.253906 L 425.5625 206.246094 L 425.339844 206.246094 L 425.167969 206.253906 L 425.085938 206.257812 L 424.921875 206.273438 L 424.765625 206.296875 L 424.691406 206.308594 L 424.613281 206.324219 L 424.542969 206.339844 L 424.46875 206.355469 L 424.398438 206.375 L 424.324219 206.394531 L 424.257812 206.417969 L 424.1875 206.4375 L 424.121094 206.460938 L 424.050781 206.484375 L 423.988281 206.511719 L 423.921875 206.539062 L 423.796875 206.59375 L 423.5625 206.71875 L 423.34375 206.859375 L 423.292969 206.894531 L 423.246094 206.933594 L 423.195312 206.96875 L 423.148438 207.003906 L 423.097656 207.042969 L 423.050781 207.078125 L 422.957031 207.15625 L 422.910156 207.191406 L 422.867188 207.230469 L 421.148438 207.230469 L 421.605469 199.828125 L 429.429688 199.828125 L 429.429688 201.324219 L 423.207031 201.324219 L 422.945312 205.6875 L 423.039062 205.617188 L 423.140625 205.546875 L 423.246094 205.480469 L 423.355469 205.417969 L 423.589844 205.292969 L 423.714844 205.234375 L 423.84375 205.179688 L 423.976562 205.125 L 424.117188 205.074219 L 424.261719 205.023438 L 424.410156 204.980469 L 424.5625 204.9375 L 424.722656 204.90625 L 424.886719 204.875 L 425.054688 204.851562 L 425.230469 204.832031 L 425.410156 204.820312 L 425.597656 204.8125 L 425.785156 204.808594 L 425.988281 204.8125 L 426.1875 204.824219 L 426.382812 204.839844 L 426.574219 204.859375 L 426.761719 204.886719 L 426.941406 204.921875 L 427.121094 204.964844 L 427.296875 205.011719 L 427.464844 205.0625 L 427.632812 205.121094 L 427.792969 205.1875 L 427.949219 205.257812 L 428.101562 205.332031 L 428.25 205.414062 L 428.390625 205.5 L 428.527344 205.59375 L 428.660156 205.6875 L 428.789062 205.792969 L 428.910156 205.898438 L 429.027344 206.011719 L 429.140625 206.125 L 429.25 206.246094 L 429.351562 206.371094 L 429.449219 206.5 L 429.539062 206.632812 L 429.625 206.773438 L 429.707031 206.914062 L 429.78125 207.0625 L 429.851562 207.210938 L 429.917969 207.367188 L 429.976562 207.527344 L 430.03125 207.691406 L 430.078125 207.855469 L 430.117188 208.027344 L 430.152344 208.199219 L 430.179688 208.375 L 430.203125 208.550781 L 430.21875 208.734375 L 430.226562 208.917969 Z M 430.230469 209.105469 "/>
<path style=" stroke:none;fill-rule:nonzero;fill:rgb(0%,0%,0%);fill-opacity:1;" d="M 272.121094 237.449219 L 269.570312 232.03125 L 264.929688 237.449219 L 262.5 237.449219 L 268.507812 230.664062 L 265.285156 224.242188 L 267.589844 224.242188 L 269.945312 229.382812 L 274.21875 224.242188 L 276.734375 224.242188 L 271.007812 230.640625 L 274.4375 237.449219 Z M 272.121094 237.449219 "/>
<path style=" stroke:none;fill-rule:nonzero;fill:rgb(0%,0%,0%);fill-opacity:1;" d="M 29.757812 98.015625 L 30.210938 98.28125 L 30.433594 98.414062 L 30.652344 98.542969 L 30.863281 98.675781 L 31.074219 98.804688 L 31.277344 98.929688 L 31.480469 99.058594 L 31.675781 99.183594 L 31.867188 99.308594 L 32.054688 99.433594 L 32.238281 99.5625 L 32.414062 99.6875 L 32.585938 99.816406 L 32.753906 99.945312 L 32.914062 100.078125 L 33.070312 100.210938 L 33.21875 100.34375 L 33.363281 100.480469 L 33.503906 100.617188 L 33.636719 100.753906 L 33.765625 100.894531 L 33.886719 101.035156 L 34 101.183594 L 34.109375 101.328125 L 34.214844 101.480469 L 34.3125 101.632812 L 34.402344 101.789062 L 34.488281 101.945312 L 34.566406 102.105469 L 34.636719 102.265625 L 34.703125 102.433594 L 34.757812 102.601562 L 34.808594 102.777344 L 34.851562 102.960938 L 34.882812 103.144531 L 34.910156 103.335938 L 34.929688 103.53125 L 34.941406 103.730469 L 34.945312 103.9375 L 34.945312 104.015625 L 34.941406 104.097656 L 34.941406 104.179688 L 34.9375 104.261719 L 34.933594 104.339844 L 34.925781 104.421875 L 34.921875 104.503906 L 34.914062 104.589844 L 34.90625 104.671875 L 34.894531 104.753906 L 34.886719 104.839844 L 34.878906 104.921875 L 34.867188 105.003906 L 34.859375 105.085938 L 34.847656 105.164062 L 34.832031 105.246094 L 34.820312 105.320312 L 34.804688 105.398438 L 34.773438 105.546875 L 33.136719 105.167969 L 33.160156 105.039062 L 33.164062 104.992188 L 33.171875 104.945312 L 33.175781 104.898438 L 33.183594 104.847656 L 33.1875 104.796875 L 33.195312 104.746094 L 33.199219 104.691406 L 33.207031 104.640625 L 33.210938 104.59375 L 33.21875 104.542969 L 33.230469 104.402344 L 33.230469 104.359375 L 33.234375 104.3125 L 33.234375 104.230469 L 33.226562 104 L 33.203125 103.777344 L 33.164062 103.558594 L 33.109375 103.347656 L 33.039062 103.140625 L 32.953125 102.9375 L 32.851562 102.742188 L 32.734375 102.554688 L 32.601562 102.367188 L 32.453125 102.191406 L 32.289062 102.011719 L 32.113281 101.835938 L 31.921875 101.660156 L 31.714844 101.484375 L 31.496094 101.308594 L 31.261719 101.132812 L 31.011719 100.960938 L 30.75 100.789062 L 30.472656 100.617188 L 30.183594 100.445312 L 29.609375 100.113281 L 16.546875 102.765625 L 16.546875 100.53125 L 23.847656 99.164062 L 23.925781 99.148438 L 24.007812 99.132812 L 24.179688 99.101562 L 24.359375 99.070312 L 24.453125 99.054688 L 24.550781 99.039062 L 24.648438 99.019531 L 24.75 99.003906 L 24.855469 98.988281 L 24.957031 98.96875 L 25.160156 98.9375 L 25.265625 98.921875 L 25.570312 98.875 L 25.675781 98.859375 L 25.777344 98.84375 L 25.875 98.832031 L 25.972656 98.816406 L 26.070312 98.804688 L 26.167969 98.789062 L 26.449219 98.753906 L 26.539062 98.742188 L 26.628906 98.734375 L 26.800781 98.710938 L 26.878906 98.699219 L 26.953125 98.691406 L 27.09375 98.675781 L 27.15625 98.667969 L 27.214844 98.660156 L 27.316406 98.652344 L 27.363281 98.648438 L 27.308594 98.625 L 27.191406 98.570312 L 27.132812 98.539062 L 27 98.476562 L 26.933594 98.441406 L 26.558594 98.253906 L 26.480469 98.210938 L 26.398438 98.171875 L 26.152344 98.042969 L 26.066406 97.996094 L 25.984375 97.953125 L 25.898438 97.90625 L 25.8125 97.855469 L 25.722656 97.808594 L 25.632812 97.757812 L 25.546875 97.710938 L 25.457031 97.660156 L 25.367188 97.613281 L 25.277344 97.5625 L 25.1875 97.515625 L 25.097656 97.464844 L 25.007812 97.417969 L 24.914062 97.367188 L 24.734375 97.265625 L 24.640625 97.214844 L 24.554688 97.167969 L 24.464844 97.117188 L 24.375 97.070312 L 24.117188 96.929688 L 16.546875 92.804688 L 16.546875 90.375 Z M 29.757812 98.015625 "/>
</g>
</svg>
