<?xml version="1.0" encoding="UTF-8"?>
<svg xmlns="http://www.w3.org/2000/svg" xmlns:xlink="http://www.w3.org/1999/xlink" width="487.774994pt" height="531.200012pt" viewBox="0 0 487.774994 531.200012" version="1.1">
<defs>
<clipPath id="clip1">
  <path d="M 0 0 L 487.773438 0 L 487.773438 531.199219 L 0 531.199219 Z M 0 0 "/>
</clipPath>
</defs>
<g id="surface1">
<path style=" stroke:none;fill-rule:nonzero;fill:rgb(100%,100%,100%);fill-opacity:1;" d="M 369.597656 175.324219 C 369.597656 239.707031 317.40625 291.898438 253.023438 291.898438 C 188.644531 291.898438 136.453125 239.707031 136.453125 175.324219 C 136.453125 110.945312 188.644531 58.753906 253.023438 58.753906 C 317.40625 58.753906 369.597656 110.945312 369.597656 175.324219 Z M 369.597656 175.324219 "/>
<path style=" stroke:none;fill-rule:nonzero;fill:rgb(100%,0%,0%);fill-opacity:1;" d="M 280.453125 317.039062 C 280.453125 381.421875 228.261719 433.609375 163.882812 433.609375 C 99.5 433.609375 47.3125 381.421875 47.3125 317.039062 C 47.3125 252.660156 99.5 200.46875 163.882812 200.46875 C 228.261719 200.46875 280.453125 252.660156 280.453125 317.039062 Z M 280.453125 317.039062 "/>
<path style=" stroke:none;fill-rule:nonzero;fill:rgb(100%,100%,100%);fill-opacity:1;" d="M 442.738281 317.039062 C 442.738281 381.421875 390.546875 433.609375 326.167969 433.609375 C 261.789062 433.609375 209.597656 381.421875 209.597656 317.039062 C 209.597656 252.660156 261.789062 200.46875 326.167969 200.46875 C 390.546875 200.46875 442.738281 252.660156 442.738281 317.039062 Z M 442.738281 317.039062 "/>
<g clip-path="url(#clip1)" clip-rule="nonzero">
<path style="fill:none;stroke-width:3.2;stroke-linecap:round;stroke-linejoin:miter;stroke:rgb(0%,0%,0%);stroke-opacity:1;stroke-miterlimit:4;" d="M 25.238281 1.609375 L 462.523438 1.609375 C 475.625 1.609375 486.167969 12.15625 486.167969 25.253906 L 486.167969 505.96875 C 486.167969 519.066406 475.625 529.609375 462.523438 529.609375 L 25.238281 529.609375 C 12.140625 529.609375 1.597656 519.066406 1.597656 505.96875 L 1.597656 25.253906 C 1.597656 12.15625 12.140625 1.609375 25.238281 1.609375 Z M 25.238281 1.609375 "/>
</g>
<path style=" stroke:none;fill-rule:nonzero;fill:rgb(100%,100%,100%);fill-opacity:1;" d="M 245.023438 233.351562 C 223.183594 254.535156 209.601562 284.214844 209.601562 317.050781 C 209.601562 349.882812 223.183594 379.539062 245.023438 400.726562 C 266.867188 379.539062 280.449219 349.882812 280.449219 317.050781 C 280.449219 284.214844 266.867188 254.535156 245.023438 233.351562 Z M 245.023438 233.351562 "/>
<path style=" stroke:none;fill-rule:nonzero;fill:rgb(100%,100%,100%);fill-opacity:1;" d="M 163.875 200.476562 C 155.605469 200.476562 147.558594 201.335938 139.773438 202.976562 C 152.191406 254.003906 198.175781 291.898438 253.023438 291.898438 C 261.292969 291.898438 269.367188 291.039062 277.148438 289.398438 C 264.738281 238.363281 218.730469 200.476562 163.875 200.476562 Z M 163.875 200.476562 "/>
<path style=" stroke:none;fill-rule:nonzero;fill:rgb(100%,100%,100%);fill-opacity:1;" d="M 326.175781 200.476562 C 272.832031 200.476562 227.851562 236.292969 214 285.199219 C 226.203125 289.535156 239.335938 291.898438 253.023438 291.898438 C 306.367188 291.898438 351.347656 256.082031 365.199219 207.175781 C 352.996094 202.839844 339.867188 200.476562 326.175781 200.476562 Z M 326.175781 200.476562 "/>
<path style="fill:none;stroke-width:3.2;stroke-linecap:round;stroke-linejoin:miter;stroke:rgb(0%,0%,0%);stroke-opacity:1;stroke-miterlimit:4;" d="M 369.597656 175.324219 C 369.597656 239.707031 317.40625 291.898438 253.023438 291.898438 C 188.644531 291.898438 136.453125 239.707031 136.453125 175.324219 C 136.453125 110.945312 188.644531 58.753906 253.023438 58.753906 C 317.40625 58.753906 369.597656 110.945312 369.597656 175.324219 Z M 369.597656 175.324219 "/>
<path style="fill:none;stroke-width:3.2;stroke-linecap:round;stroke-linejoin:miter;stroke:rgb(0%,0%,0%);stroke-opacity:1;stroke-miterlimit:4;" d="M 280.453125 317.039062 C 280.453125 381.421875 228.261719 433.609375 163.882812 433.609375 C 99.5 433.609375 47.3125 381.421875 47.3125 317.039062 C 47.3125 252.660156 99.5 200.46875 163.882812 200.46875 C 228.261719 200.46875 280.453125 252.660156 280.453125 317.039062 Z M 280.453125 317.039062 "/>
<path style="fill:none;stroke-width:3.2;stroke-linecap:round;stroke-linejoin:miter;stroke:rgb(0%,0%,0%);stroke-opacity:1;stroke-miterlimit:4;" d="M 442.738281 317.039062 C 442.738281 381.421875 390.546875 433.609375 326.167969 433.609375 C 261.789062 433.609375 209.597656 381.421875 209.597656 317.039062 C 209.597656 252.660156 261.789062 200.46875 326.167969 200.46875 C 390.546875 200.46875 442.738281 252.660156 442.738281 317.039062 Z M 442.738281 317.039062 "/>
</g>
</svg>
